<svg xmlns="http://www.w3.org/2000/svg" height="2048" preserveAspectRatio="none" style="display: block;" version="1.1" viewBox="0 0 2048 2048" width="2048">
<path d="M 1165.49 962.166 C 1192.55 905.158 1187.33 877.869 1187.43 817.636 L 1188.55 675.538 C 1188.56 669.315 1191.01 636.389 1183.54 636.227 C 1151.83 635.54 1119.74 636.547 1087.95 636.342 C 1082.61 636.299 1069.2 638.806 1065.46 636.809 C 1063.9 634.185 1063.98 635.477 1064.46 632.933 C 1110.16 582.389 1152.16 528.198 1197.2 477.047 C 1208.91 463.751 1220.23 445.719 1233.58 434.644 C 1237.65 434.802 1242.39 439.776 1245.18 442.823 C 1286.7 488.145 1327.92 534.244 1369.82 579.184 C 1383.14 593.297 1396.54 607.335 1410.01 621.299 C 1414.66 626.111 1423.69 634.457 1427.46 639.209 C 1409.15 639.855 1301.87 637.672 1296.59 640.909 C 1292.87 660.506 1296.53 695.413 1296.41 716.254 C 1296.1 770.05 1296.9 823.995 1295.77 877.79 C 1295.6 886.154 1292.64 896.219 1291.87 904.659 C 1289.11 935.575 1278.22 964.997 1263.58 992.226 C 1260.43 998.086 1247.85 1020.67 1243.48 1023.85 C 1241.82 1026.6 1239.65 1030.47 1237.87 1033.01 C 1227.9 1040.18 1217.31 1057.14 1207.02 1064.99 C 1202.87 1068.15 1195.07 1076.77 1190.88 1079.1 C 1189.28 1080.41 1187.71 1081.75 1186.16 1083.13 C 1184.68 1084.66 1184.01 1084.93 1182.63 1086.12 C 1107.38 1150.57 1009.45 1168.35 915.905 1132.11 C 872.215 1115.19 803.512 1064.96 782.551 1016.07 C 774.994 1007.29 761.93 979.54 759.433 968.274 C 747.066 937.84 740.713 905.298 740.726 872.448 C 740.842 859.322 742.526 841.007 740.854 828.343 C 741.825 817.78 740.604 793.732 738.863 782.973 L 740.153 783.01 C 740.436 780.115 740.335 776.483 740.342 773.502 C 739.815 752.842 739.576 732.485 736.833 711.972 C 736.613 710.32 745.024 706.409 746.921 707.283 C 774.48 711.416 798.521 729.342 816.457 749.927 C 850.127 788.277 850.276 817.887 849.244 865.411 C 848.92 880.361 855.111 915.841 860.222 931.03 C 863.813 936.552 863.894 939.636 866.477 945.283 C 871.336 955.903 876.873 967.156 883.034 977.092 C 885.654 981.317 891.886 986.252 894.939 990.486 C 897.887 994.573 900.509 998.76 904.369 1002.06 C 910.251 1008.21 925.715 1017.77 929.61 1023.25 C 935.79 1024.04 937.58 1026.72 942.617 1029.64 C 960.852 1040.21 981.447 1040.12 1000.64 1046.98 C 1015.5 1051.3 1060.95 1045.08 1075.99 1039.39 C 1084.54 1036.15 1085.68 1032.84 1095.31 1031.92 C 1104.7 1023.51 1110.49 1023.44 1119.44 1016.69 C 1138.59 1002.22 1152.58 981.949 1165.49 962.166 z" fill="rgb(44,56,248)" transform="translate(0,0)"></path>
<path d="M 740.153 783.01 L 740.577 783.711 L 741.607 771.937 C 745.297 800.471 747.176 825.218 754.114 853.415 C 771.085 922.385 812.954 973.532 867.693 1016.25 C 937.459 1070.7 1025.2 1112.11 1115.81 1100.51 C 1140.66 1097.11 1164.91 1090.23 1187.84 1080.08 C 1189.44 1079.39 1188.83 1079.65 1190.88 1079.1 C 1189.28 1080.41 1187.71 1081.75 1186.16 1083.13 C 1184.68 1084.66 1184.01 1084.93 1182.63 1086.12 C 1107.38 1150.57 1009.45 1168.35 915.905 1132.11 C 872.215 1115.19 803.512 1064.96 782.551 1016.07 C 774.994 1007.29 761.93 979.54 759.433 968.274 C 747.066 937.84 740.713 905.298 740.726 872.448 C 740.842 859.322 742.526 841.007 740.854 828.343 C 741.825 817.78 740.604 793.732 738.863 782.973 L 740.153 783.01 z" fill="rgb(32,20,101)" transform="translate(0,0)"></path>
<path d="M 740.342 773.502 C 740.559 765.454 740.61 746.285 741.827 739.493 C 742.651 750.163 741.822 761.532 743.903 772.159 C 760.684 857.854 812.603 935.681 876.646 993.692 C 891.486 1007.13 909.812 1018.52 926.722 1028.47 C 960.304 1052.16 1051.46 1074.66 1091.53 1068.06 C 1132.02 1067.74 1174.41 1056.59 1211.34 1040.52 C 1217.44 1037.87 1240.08 1024.15 1243.48 1023.85 C 1241.82 1026.6 1239.65 1030.47 1237.87 1033.01 C 1227.9 1040.18 1217.31 1057.14 1207.02 1064.99 C 1202.87 1068.15 1195.07 1076.77 1190.88 1079.1 C 1188.83 1079.65 1189.44 1079.39 1187.84 1080.08 C 1164.91 1090.23 1140.66 1097.11 1115.81 1100.51 C 1025.2 1112.11 937.459 1070.7 867.693 1016.25 C 812.954 973.532 771.085 922.385 754.114 853.415 C 747.176 825.218 745.297 800.471 741.607 771.937 L 740.577 783.711 L 740.153 783.01 C 740.436 780.115 740.335 776.483 740.342 773.502 z" fill="rgb(34,42,208)" transform="translate(0,0)"></path>
<path d="M 1185.57 710.811 C 1185.68 702.209 1186.73 646.609 1185.14 641.348 C 1183.13 640.072 1180.41 639.18 1178.01 639.197 C 1148.82 639.403 1119.62 639.52 1090.41 639.409 C 1081.58 639.375 1072.41 641.331 1063.62 640.284 C 1062.91 639.575 1062.2 638.866 1061.49 638.157 C 1061.05 636.116 1060.41 633.557 1062.06 631.667 C 1116.01 570.072 1169.02 507.028 1220.61 443.416 C 1238.03 421.944 1238.65 431.567 1255.05 449.927 C 1265.36 461.52 1275.76 473.039 1286.25 484.485 C 1312.43 512.412 1338.32 540.616 1363.91 569.093 C 1374.55 580.925 1386.15 592.812 1396.46 604.93 C 1403.1 612.726 1424.54 628.754 1426.26 637.629 C 1423.65 645.965 1405.49 640.673 1398.2 641.558 C 1381.03 643.641 1310.7 637.819 1298.7 642.991 C 1296.26 656.124 1296.56 699.212 1300.45 711.709 C 1307.65 714.066 1306.89 706.315 1321.87 712.47 C 1357.57 727.145 1385.41 756.287 1400.25 791.715 C 1414.95 826.511 1412.54 869.264 1412.51 906.687 L 1412.52 992.229 L 1412.51 1078.21 C 1412.5 1093.97 1412.55 1109.67 1412.07 1125.33 C 1410.39 1179.77 1381.58 1227.01 1333.25 1252.56 C 1326.56 1256.09 1317.79 1255.04 1311.94 1259.83 C 1310.11 1261.35 1307.41 1262.22 1304.95 1262.2 C 1303.34 1261.26 1301.31 1260.11 1301.3 1258.01 C 1301.25 1233.22 1302.48 1199.25 1302.55 1175.28 L 1301.75 910.185 C 1301.37 888.956 1303.33 726.222 1300.01 718.082 C 1297.13 772.749 1300.79 834.465 1297.8 889.676 C 1297.47 895.802 1294 900.665 1294.3 908.644 C 1293.65 915.124 1291.59 929.717 1291.1 935.259 C 1290.84 938.307 1297.3 946.118 1297.31 956.442 L 1297.55 1073.96 C 1297.54 1090.4 1297.62 1106.87 1297.38 1123.3 C 1297.36 1124.67 1292.94 1135.98 1292.16 1136.65 C 1291.48 1131.77 1295.71 1120.57 1295.65 1114.44 C 1295.26 1073.11 1295.59 1031.74 1295.66 990.416 C 1295.68 981.703 1296.63 953.442 1293.01 946.546 C 1289.87 947.005 1287.79 956.972 1286.48 960.763 C 1276.79 988.689 1261.61 1016.56 1243.1 1039.57 C 1240.68 1042.58 1240.4 1042.63 1238.2 1046.14 C 1238.67 1037.8 1248.27 1031.9 1245.15 1029.3 C 1241.61 1028.75 1244.35 1032.51 1237.87 1033.01 C 1239.65 1030.47 1241.82 1026.6 1243.48 1023.85 C 1247.85 1020.67 1260.43 998.086 1263.58 992.226 C 1278.22 964.997 1289.11 935.575 1291.87 904.659 C 1292.64 896.219 1295.6 886.154 1295.77 877.79 C 1296.9 823.995 1296.1 770.05 1296.41 716.254 C 1296.53 695.413 1292.87 660.506 1296.59 640.909 C 1301.87 637.672 1409.15 639.855 1427.46 639.209 C 1423.69 634.457 1414.66 626.111 1410.01 621.299 C 1396.54 607.335 1383.14 593.297 1369.82 579.184 C 1327.92 534.244 1286.7 488.145 1245.18 442.823 C 1242.39 439.776 1237.65 434.802 1233.58 434.644 C 1220.23 445.719 1208.91 463.751 1197.2 477.047 C 1152.16 528.198 1110.16 582.389 1064.46 632.933 C 1063.98 635.477 1063.9 634.185 1065.46 636.809 C 1069.2 638.806 1082.61 636.299 1087.95 636.342 C 1119.74 636.547 1151.83 635.54 1183.54 636.227 C 1191.01 636.389 1188.56 669.315 1188.55 675.538 L 1187.43 817.636 C 1187.33 877.869 1192.55 905.158 1165.49 962.166 C 1164.95 946.838 1182.53 925.882 1176.03 915.628 C 1173 918.037 1172.73 917.931 1171.13 921.583 L 1170.83 919.493 C 1172.3 914.474 1172.97 913.774 1176.22 909.612 C 1179.1 861.744 1177 814.268 1177.06 766.357 C 1177.07 757.478 1180.16 716.894 1174.52 712.982 C 1165.38 711.651 1149.59 718.828 1141.68 723.333 C 1146.01 716.003 1169.38 707.275 1177.05 712.83 C 1177.61 713.345 1181.38 716.922 1181.33 717.476 C 1177.16 766.857 1180.36 816.664 1181.17 866.15 C 1181.37 878.85 1179.96 892.187 1180.71 904.706 C 1181.82 903.864 1184.74 891.693 1184.72 889.895 C 1184.37 847.326 1184.14 804.701 1185.14 762.137 C 1185.52 745.935 1181.8 727.778 1185.29 712.026 L 1185.57 710.811 z" fill="rgb(254,253,253)" fill-opacity="0.133333" transform="translate(0,0)"></path>
<path d="M 1304.6 712.807 C 1305.77 712.685 1306.95 712.599 1308.12 712.547 C 1322.46 711.903 1348.75 728.565 1358.92 738.218 C 1388.32 766.108 1407.57 800.8 1408.34 841.885 C 1409.34 894.836 1408.67 947.923 1408.69 1000.78 L 1408.79 1078.16 C 1408.88 1139.09 1413.13 1175.2 1368.82 1223.3 C 1359.99 1233.8 1316.78 1263.64 1304.27 1257.57 C 1303.21 1250.35 1304.2 1221.55 1304.25 1211.8 L 1304.43 1111.7 C 1305.76 1003.87 1305.76 896.024 1304.44 788.192 C 1304.31 776.867 1302.64 719.661 1304.6 712.807 z" fill="rgb(32,20,101)" transform="translate(0,0)"></path>
<path d="M 1141.68 723.333 C 1149.59 718.828 1165.38 711.651 1174.52 712.982 C 1180.16 716.894 1177.07 757.478 1177.06 766.357 C 1177 814.268 1179.1 861.744 1176.22 909.612 C 1172.97 913.774 1172.3 914.474 1170.83 919.493 L 1171.13 921.583 C 1170.78 923.32 1170.1 927.16 1169.69 928.684 C 1166.76 939.512 1161.25 942.814 1159.71 954.889 C 1158.98 955.63 1154.1 960.666 1153.6 960.994 C 1151.42 968.946 1145.98 973.772 1141.58 980.384 C 1129.89 998.532 1114.69 1011.25 1095.69 1021.29 C 1087.64 1025.54 1082.98 1026 1075.22 1031.86 C 1067.32 1032.04 1051.25 1037.25 1041.54 1038.54 C 1002.03 1043.28 955.349 1032.12 923.555 1008.24 C 893.237 985.477 878.494 954.034 865.78 919.488 C 864.267 913.284 864.056 906.412 863.014 900.161 C 857.292 865.85 859.717 832.689 854.79 798.045 C 852.173 791.758 849.328 791.396 849.301 783.682 C 855.781 781.369 855.193 781.888 861.463 781.92 C 907.78 782.094 947.782 819.632 965.566 859.965 C 977.227 886.409 978.027 919.879 999.364 941.728 C 1002.99 945.439 1018.97 944.19 1024.03 944.044 L 1025.74 943.98 C 1034.64 943.901 1040.07 938.459 1046.01 933.028 C 1067.47 913.415 1072.36 880.384 1071.99 852.691 C 1071.87 843.526 1072.1 833.839 1073.52 824.658 C 1076.27 805.801 1082.63 787.652 1092.26 771.207 C 1100.63 756.712 1126.42 727.413 1141.68 723.333 z" fill="rgb(32,20,101)" transform="translate(0,0)"></path>
<path d="M 1141.68 723.333 C 1149.59 718.828 1165.38 711.651 1174.52 712.982 C 1180.16 716.894 1177.07 757.478 1177.06 766.357 C 1177 814.268 1179.1 861.744 1176.22 909.612 C 1172.97 913.774 1172.3 914.474 1170.83 919.493 L 1171.13 921.583 C 1170.78 923.32 1170.1 927.16 1169.69 928.684 C 1166.76 939.512 1161.25 942.814 1159.71 954.889 C 1158.98 955.63 1154.1 960.666 1153.6 960.994 C 1146.82 969.431 1135.82 972.642 1125.75 975.677 C 1078.71 989.865 1034.33 979.863 1000.02 945.498 C 1005.94 945.515 1018.99 945.84 1024.03 944.044 L 1025.74 943.98 C 1034.64 943.901 1040.07 938.459 1046.01 933.028 C 1067.47 913.415 1072.36 880.384 1071.99 852.691 C 1071.87 843.526 1072.1 833.839 1073.52 824.658 C 1076.27 805.801 1082.63 787.652 1092.26 771.207 C 1100.63 756.712 1126.42 727.413 1141.68 723.333 z" fill="rgb(44,56,248)" transform="translate(0,0)"></path>
<path d="M 1008.57 950.559 C 1053.58 962.102 1082.42 964.305 1128.41 947.732 C 1140.37 942.161 1159.54 935.779 1167.02 924.676 C 1169.06 921.646 1167.34 922.395 1170.83 919.493 L 1171.13 921.583 C 1170.78 923.32 1170.1 927.16 1169.69 928.684 C 1166.76 939.512 1161.25 942.814 1159.71 954.889 C 1158.98 955.63 1154.1 960.666 1153.6 960.994 C 1146.82 969.431 1135.82 972.642 1125.75 975.677 C 1078.71 989.865 1034.33 979.863 1000.02 945.498 C 1005.94 945.515 1018.99 945.84 1024.03 944.044 L 1025.74 943.98 C 1019.52 950.951 1018.23 949.824 1008.57 950.559 z" fill="rgb(34,42,208)" transform="translate(0,0)"></path>
<path d="M 732.276 943.146 C 730.065 960.054 731.223 996.091 730.766 1014.7 C 729.334 1073.01 731.734 1132.17 731.478 1190.36 C 731.412 1205.15 732.402 1245.23 730.634 1257.07 C 717.501 1260.15 681.242 1234.96 671.391 1225.42 C 638.824 1193.89 628.406 1163.85 627.851 1119.6 C 627.415 1052.96 627.365 986.317 627.7 919.675 L 627.669 858.04 C 627.684 842.515 626.877 823.031 630.04 807.168 C 639.7 758.715 677.655 713 728.634 706.904 C 731.062 706.614 732.352 708.202 733.671 709.802 C 734.328 713.327 733.607 715.782 732.997 719.315 C 731.066 728.986 732.061 749.534 731.948 760.481 C 731.028 769.492 731.275 779.704 731.3 788.839 C 731.413 829.995 729.837 871.124 731.435 912.265 C 731.693 918.917 731.502 925.844 732.164 932.439 C 732.314 935.405 732.755 940.447 732.276 943.146 z" fill="rgb(44,56,248)" transform="translate(0,0)"></path>
<path d="M 1238.2 1046.14 C 1240.4 1042.63 1240.68 1042.58 1243.1 1039.57 C 1261.61 1016.56 1276.79 988.689 1286.48 960.763 C 1287.79 956.972 1289.87 947.005 1293.01 946.546 C 1296.63 953.442 1295.68 981.703 1295.66 990.416 C 1295.59 1031.74 1295.26 1073.11 1295.65 1114.44 C 1295.71 1120.57 1291.48 1131.77 1292.16 1136.65 C 1290.17 1183.26 1247.52 1235.79 1204.02 1250.45 C 1199.39 1252.02 1194.71 1255.23 1189.75 1255.35 C 1187.96 1252.99 1185.92 1250.34 1185.93 1247.23 C 1185.98 1235.47 1186.42 1223.7 1186.52 1211.93 L 1186.52 1144.9 C 1186.55 1135.12 1184.88 1111.47 1185.92 1104.3 C 1187.73 1099.13 1187.64 1096.42 1190.95 1091.95 C 1191.5 1090.89 1192.82 1088.08 1194.52 1087.91 C 1199.83 1087.38 1199.35 1081.61 1203.43 1080.17 C 1203.94 1080.03 1204.45 1079.88 1204.97 1079.74 C 1208.55 1078.8 1207.84 1073.45 1211.38 1072.55 C 1212.93 1072.47 1215.73 1070.6 1216.1 1068.96 C 1216.77 1064.39 1223.12 1064.72 1224.12 1060.97 C 1225.66 1055.15 1231.72 1057.47 1232.31 1050.94 C 1232.51 1048.75 1236.71 1048.6 1238.2 1046.14 z" fill="rgb(32,20,101)" transform="translate(0,0)"></path>
<path d="M 741.449 945.653 C 744.41 955.264 744.322 958.265 751.05 965.271 C 751.659 970.687 753.91 985.855 757.473 989.516 C 758.622 991.234 768.364 1010.35 768.866 1012.24 C 785.618 1041.37 807.047 1065.44 830.966 1088.78 C 839 1096.62 845.295 1099.3 851.846 1107.08 C 851.901 1112.54 851.798 1119.35 852.109 1124.68 L 851.965 1125.89 C 851.044 1131.09 851.378 1151.56 851.383 1157.42 L 851.577 1223.06 C 851.628 1230.59 852.315 1245.3 850.609 1252.03 L 848.891 1252.69 C 829.219 1250.2 805.803 1235.02 791.462 1221.72 C 739.388 1173.42 743.913 1126.04 741.294 1062.5 C 742.644 1038.16 740.617 1007.82 741.097 982.996 C 741.341 970.396 739.828 958.453 741.449 945.653 z" fill="rgb(34,42,208)" transform="translate(0,0)"></path>
<path d="M 1597.45 1415.88 C 1605.26 1415.66 1614.63 1417.81 1624.6 1417.86 C 1658.95 1418.03 1708.22 1406.6 1723.86 1448.41 C 1725.25 1452.13 1724.3 1460.98 1726.53 1467.86 L 1726.93 1469.06 C 1722.97 1482.44 1725.25 1492.72 1714.59 1503.29 C 1709.79 1504.76 1706.36 1504.69 1704.89 1509.66 C 1707.19 1514.77 1723.3 1523.77 1723.64 1530.57 C 1724.75 1552.59 1724.83 1578.13 1723.89 1600.09 C 1694.05 1602.62 1703.7 1581.76 1703.61 1557.5 C 1703.55 1551.35 1703.83 1544.78 1703.99 1538.59 C 1697.08 1531.08 1698.66 1531.09 1690.16 1524.65 C 1670.63 1523.87 1651.61 1518.12 1630.78 1521.57 C 1624.12 1522.67 1613.25 1521.72 1614.08 1532.94 C 1615.59 1553.5 1615.13 1573.5 1615.91 1593.92 C 1611.46 1599.3 1611.38 1599.3 1604.35 1600.75 C 1599.41 1602.32 1592.21 1598.47 1592.14 1592.78 C 1591.5 1536.96 1592.23 1481.04 1591.76 1425.21 C 1591.71 1420.06 1593.93 1419.41 1597.45 1415.88 z M 1666.25 1500.29 C 1674.04 1500.4 1683.65 1500.43 1691.36 1499.62 C 1707.2 1484.66 1703.23 1476.25 1704.16 1455.74 L 1701.97 1452.97 C 1689.13 1436.46 1669.8 1435.63 1649.85 1437.46 C 1641.83 1437.74 1631.06 1439.11 1622.99 1438.11 C 1618.23 1437.52 1613.34 1441.45 1614.14 1446.41 C 1617.33 1455.53 1614.03 1467.77 1614.95 1477.5 C 1616.21 1485.88 1610.36 1488.54 1612.86 1496.03 C 1614.53 1501.07 1623.16 1500.81 1627 1500.29 C 1640.22 1500.1 1653.15 1500.05 1666.25 1500.29 z" fill="rgb(32,20,101)" transform="translate(0,0)"></path>
<path d="M 1068.19 1415.7 C 1073.29 1415.7 1075.15 1416.69 1079.48 1417.17 C 1121.82 1421.84 1197.27 1398.16 1196.3 1466.51 C 1195.87 1497.39 1195.64 1489.72 1176.55 1508.87 C 1176.27 1515.4 1194.71 1522.3 1195.66 1531.45 C 1196.31 1537.82 1197.32 1597.18 1195.09 1598.24 C 1168.65 1610.69 1175.41 1577.35 1175.72 1562.25 C 1175.65 1554.59 1175.88 1546.71 1176.01 1539.03 C 1169.03 1530.49 1172.21 1531.61 1162.98 1524.84 C 1140.91 1522.74 1123.77 1518.46 1101.07 1522.91 C 1098.21 1523.47 1084.98 1521.94 1084.62 1527.27 C 1082.98 1551.48 1084.84 1575.97 1083.86 1600.28 C 1077.91 1600.46 1070.7 1601.38 1065.67 1598.45 C 1062.71 1593.59 1063.65 1560.44 1063.66 1552.12 L 1063.75 1480.38 C 1063.72 1462.1 1063.6 1440.73 1063.76 1422.27 C 1063.78 1420.76 1067.03 1417.07 1068.19 1415.7 z M 1083.91 1442.41 C 1084.37 1455.47 1083.77 1468.49 1084.17 1481.5 C 1084.38 1488.32 1080.73 1499.62 1089.49 1499.95 C 1108.94 1500.66 1128.53 1499.77 1148 1500.74 C 1156.12 1501.03 1160.87 1500.32 1167.12 1495.88 C 1177.77 1481.63 1175.36 1474.15 1176.14 1456.84 C 1172.15 1450.22 1169.18 1445.19 1161.35 1441.64 C 1156.7 1439.53 1150.07 1438.88 1145.07 1437.54 C 1131.9 1436.33 1116.63 1436.45 1103.5 1438.16 C 1097.27 1438.97 1096.23 1436.27 1091.41 1436.66 C 1088.99 1438.43 1086.1 1440.41 1083.91 1442.41 z" fill="rgb(32,20,101)" transform="translate(0,0)"></path>
<path d="M 310.483 1415.95 C 317.307 1416.28 335.251 1414.39 338.575 1418.44 C 341.124 1421.54 340.205 1453.6 340.213 1458.97 L 340.296 1527.81 L 340.019 1573.85 C 339.937 1588.34 345.754 1602.77 324.585 1600.33 C 321.143 1599.94 319.284 1597.03 317.521 1594.41 C 318.921 1565.14 319.033 1535.35 317.911 1506.08 C 317.495 1495.22 322.907 1466.14 317.625 1457.84 L 315.655 1457.47 C 313.235 1459.82 311.557 1465.73 310.511 1469.03 C 298.999 1505.42 286.144 1541.32 275.471 1578.01 C 273.381 1585.19 270.93 1593.27 266.279 1599.21 C 261.333 1600.35 243.316 1600.12 237.287 1600.28 C 231.435 1590.68 224.291 1568.95 223.5 1557.3 C 223.263 1553.81 214.327 1542.7 215.958 1537.27 C 216.416 1535.75 215.634 1532.8 215.147 1531.38 C 205.625 1512.7 197.862 1467.7 187.388 1453.74 L 184.43 1454.83 C 183.658 1467.94 185.702 1482 185.212 1494.41 C 184.251 1518.8 184.094 1542.34 184.346 1566.72 C 184.403 1572.19 185.724 1594.27 185.175 1596.93 C 179.779 1602.62 163.901 1603.29 163.877 1590.94 C 163.838 1571.71 163.867 1552.48 163.902 1533.25 L 163.697 1421.09 C 165.545 1419.85 168.623 1417.27 170.479 1415.8 C 176.997 1415.94 190.696 1414.11 196.313 1416.64 C 203.724 1419.98 242.713 1568.22 251.588 1573.64 C 256.247 1572.7 256.645 1565.63 258.162 1561.17 C 260.516 1555.61 261.985 1545.27 264.557 1540.4 C 269.415 1531.2 270.59 1524.93 272.806 1515.03 C 273.629 1511.35 277.576 1505.17 278.893 1500.82 L 295.675 1446.43 C 299.128 1435.24 300.067 1423.99 309.245 1416.9 L 310.483 1415.95 z" fill="rgb(32,20,101)" transform="translate(0,0)"></path>
<path d="M 716.18 1598 L 714.833 1599.63 C 709.703 1600.83 704.745 1601.03 699.727 1599.38 C 698.168 1597.85 695.803 1595.5 695.777 1593.28 C 695.557 1574.4 695.686 1554.02 695.78 1535.23 C 695.957 1499.81 695.734 1464.79 695.809 1429.43 C 696.272 1426.88 695.305 1421.29 697.16 1419.47 C 703.156 1413.61 717.321 1416.12 725.833 1415.61 C 728.149 1417.75 730.072 1419.19 731.145 1422.15 C 735.261 1433.48 738.933 1444.62 742.706 1456.06 L 770.821 1541.57 C 772.798 1547.51 778.295 1572.68 781.79 1574.91 C 791.961 1572.18 790.785 1561.03 792.99 1553.98 C 806.605 1510.47 820.747 1466.96 834.575 1423.57 C 835.216 1421.56 840.993 1417.39 843.019 1415.88 C 851.637 1416.12 864.966 1413.51 871.243 1419.43 C 872.346 1424.26 870.684 1438.36 870.802 1444.75 L 871.859 1545.22 C 871.923 1559.82 872.059 1574.09 872.141 1589.06 C 873.621 1600.28 860.56 1604.71 853.174 1598 C 847.366 1592.72 851.308 1576.97 850.985 1569.8 C 850.223 1552.91 851.18 1534.94 849.863 1518.26 L 849.769 1517.17 C 851.264 1492.23 851.052 1461.38 850.955 1436.1 L 848.091 1446.03 C 847.013 1450.02 843.954 1459.12 844.432 1462.96 C 839.1 1475.59 803.581 1580.69 804.153 1590.51 C 801.449 1593.46 797.739 1597.27 795.38 1600.37 C 785.25 1599.39 780.593 1599.72 770.387 1600.64 C 767.112 1597.59 763.862 1595.24 763.514 1590.72 C 761.332 1562.34 727.719 1495.78 727.81 1471.16 C 725.593 1465.86 721.253 1456.34 717.257 1452.34 L 716.033 1452.49 C 714.093 1458.51 715.891 1477.92 715.964 1485.9 L 716.087 1560.12 C 716.111 1570.44 716.813 1588.52 716.18 1598 z" fill="rgb(32,20,101)" transform="translate(0,0)"></path>
<path d="M 1809.47 1412.39 C 1850.59 1409.3 1890.74 1427.85 1888.36 1474.57 C 1880.94 1480.55 1879.13 1478.98 1869.13 1478.19 C 1865.41 1466.14 1863.39 1466.28 1863.67 1452.54 C 1858.44 1447.77 1854.31 1443.1 1847.93 1439.89 C 1831.88 1432.15 1813.98 1432.8 1797.27 1437.45 C 1782.69 1439.77 1771.53 1460.26 1778.85 1474.31 C 1792.52 1500.54 1841.2 1491.83 1865.18 1504.62 C 1884.1 1514.7 1882.1 1514.52 1889.41 1533.36 C 1895.69 1549.54 1889.34 1571.35 1878.17 1583.76 C 1864.49 1597.27 1845.91 1600.52 1827.16 1600.48 C 1807.13 1600.37 1790.4 1603.61 1773.82 1591.43 C 1761.42 1581.61 1755.88 1575.28 1751.99 1558.18 C 1749.41 1546.81 1748.94 1519.51 1770.37 1533.45 C 1773.44 1535.45 1772.41 1548.71 1772.27 1553.41 C 1775.94 1558.65 1776.24 1562.81 1781.3 1568.27 C 1788.82 1577.17 1799.68 1579.68 1810.89 1579.88 C 1829.62 1580.22 1865.02 1581.88 1868 1556.49 C 1868.71 1550.51 1868.5 1544.82 1868.24 1538.86 C 1862.73 1529.11 1857.17 1523.98 1845.54 1521.2 C 1809.72 1512.63 1756.45 1516.59 1755.31 1465.67 C 1755.11 1456.48 1756.25 1448.14 1760.91 1440 C 1771.96 1420.31 1789.83 1417.71 1809.47 1412.39 z" fill="rgb(32,20,101)" transform="translate(0,0)"></path>
<path d="M 587.785 1412.45 C 626.058 1410.55 665.339 1427.39 660.371 1472.44 C 659.988 1475.9 660.03 1476.11 657.536 1478.28 C 651.29 1479.58 645.051 1477.59 639.765 1474.28 C 639.218 1463.17 641.727 1455.73 633.178 1447 C 619.096 1432.62 595.618 1431.96 577.081 1435.49 C 564.124 1437.97 561.493 1441.85 552.236 1450.05 C 551.527 1474.9 550.472 1485.86 577.249 1491.52 C 602.113 1497.16 635.95 1496.09 655.032 1515.9 C 671.516 1533.02 667.114 1569.53 650.163 1584.99 C 632.557 1601.04 615.168 1600.56 593.747 1600.44 C 579.41 1600.51 569.868 1602.32 555.073 1594.99 C 534.006 1584.55 520.069 1556.89 528.403 1533.96 C 529.126 1531.97 533.195 1529 535.566 1529.07 C 551.816 1529.49 546.744 1541.44 548.56 1552.72 C 550.235 1563.96 554.611 1568.19 562.563 1575.47 C 569.001 1575.83 571.333 1578.13 576.626 1578.66 C 592.425 1579.95 610.604 1582.51 625.479 1575.93 C 638.458 1570.18 637.055 1565.12 643.134 1555.97 L 643.717 1555.11 L 643.682 1540.15 C 627.901 1515.86 609.388 1519.38 581.868 1514.45 C 551.945 1509.08 528.718 1497.18 528.397 1462.33 C 528.37 1459.42 535.092 1439.59 537.63 1436.29 C 550.403 1419.68 568.054 1416.1 587.785 1412.45 z" fill="rgb(32,20,101)" transform="translate(0,0)"></path>
<path d="M 1536.73 1416.45 C 1557.98 1415.71 1565.01 1410.94 1564.4 1436.27 L 1507.02 1437.52 C 1493.87 1437.85 1477.14 1437.51 1464.74 1440.48 C 1463.79 1443.64 1462.68 1446.97 1462.33 1450.26 C 1461.82 1455.01 1461.22 1488.85 1462.29 1489.86 C 1468.94 1496.08 1535.35 1493.19 1547.72 1492.46 C 1553.12 1497.14 1559.33 1501.89 1556.6 1509.76 C 1547.04 1519.71 1481.35 1508.97 1465.48 1514.43 C 1455.11 1518 1464.19 1550.56 1462.67 1558.57 C 1460.74 1568.75 1456.4 1578.01 1470.01 1579.81 C 1474.67 1578.65 1484.85 1577.84 1489.32 1578.74 C 1503.63 1581.62 1552.69 1575.2 1563 1581.77 C 1565.54 1586.09 1565.71 1595.49 1561.92 1599.21 C 1557.62 1599.9 1538.35 1600.31 1533.78 1599.82 C 1517.08 1598 1450.81 1603.19 1441.11 1597.59 C 1438.75 1592.79 1438.33 1452.93 1440.71 1436.99 C 1448.97 1425.57 1454.29 1419 1469.89 1417.55 C 1492.17 1415.49 1514.31 1418.43 1536.73 1416.45 z" fill="rgb(32,20,101)" transform="translate(0,0)"></path>
<path d="M 411.871 1416.21 C 427.914 1418.99 450.481 1415.85 467.162 1416.86 C 477.824 1417.51 494.469 1410.85 500.977 1421.61 C 501.377 1426.89 501.201 1431.93 498.577 1436.61 C 495.395 1437.5 484.705 1436.56 480.065 1436.66 C 457.286 1437.2 434.205 1436.26 411.57 1438.94 C 397.561 1440.61 400.523 1454.3 400.77 1464.56 C 400.959 1472.42 396.903 1491.15 406.031 1494.73 C 423.273 1489.2 463.002 1496.11 484.677 1491.55 L 492.459 1497.57 C 492.497 1500.48 493.712 1513.63 489.263 1514.1 C 472.181 1515.93 415.995 1509.24 402.762 1515.87 C 398.698 1520.27 400.284 1530.71 400.51 1537.09 C 400.457 1545.73 398.795 1571.88 402.365 1576.94 C 415.92 1585.32 496.034 1571.81 503.587 1582.91 C 504.743 1593.27 502.9 1601.74 491.157 1600.17 C 478.463 1598.46 385.912 1601.88 380.334 1599.06 C 378.981 1592.17 379.486 1559.76 379.479 1550.13 L 379.832 1436.91 C 384.432 1428.54 387.971 1425.95 395.023 1419.75 C 402.665 1419.26 404.576 1418.64 411.871 1416.21 z" fill="rgb(32,20,101)" transform="translate(0,0)"></path>
<path d="M 1013.66 1416.52 C 1017.96 1416.66 1024.88 1415.85 1029.36 1415.47 C 1033.01 1418.84 1037.69 1423.41 1037.21 1428.94 C 1036.94 1431.97 1034.33 1434.17 1031.64 1435.13 C 1013.35 1441.66 947.398 1430.95 935.862 1441.8 C 930.191 1447.13 932.086 1482.79 931.995 1492.02 C 959.143 1494.88 990.348 1491.96 1017.55 1492.42 C 1023.99 1492.54 1031.93 1510.49 1018.99 1514.1 C 1008.31 1517.08 934.249 1506.13 932.633 1520.06 C 931.86 1526.73 931.358 1571.51 933.977 1577.02 C 939.043 1581.38 949.116 1579.62 956.75 1579.64 L 1001.14 1579.35 C 1009.98 1579.21 1028.97 1576.84 1035.97 1583.38 C 1041.75 1588.79 1034.63 1596.78 1029.79 1600.48 C 1019.65 1599.38 1003.03 1599.93 992.399 1599.96 C 974.99 1600.03 957.581 1599.98 940.173 1599.8 C 933.777 1599.79 918.511 1600.43 913.109 1599.35 C 910.576 1590.35 911.753 1548.66 911.791 1537.6 L 912.057 1436.36 C 917.246 1428.15 919.665 1425.76 926.946 1419.96 C 934.63 1419.91 945.81 1417.38 956.557 1417.24 C 975.148 1417.01 995.528 1418.34 1013.66 1416.52 z" fill="rgb(32,20,101)" transform="translate(0,0)"></path>
<path d="M 1366.81 448.712 C 1359.53 441.648 1352.66 438.687 1344.1 433.962 C 1278.38 397.71 1199.24 397.743 1132.8 432.281 C 1117.47 440.248 1103.57 452.087 1090.23 463.017 C 1084.82 467.43 1080.12 475.461 1073.71 476.245 C 1070.48 470.024 1082.09 457.4 1085.95 452.366 C 1107.25 424.59 1130.43 403.997 1161.66 388.107 C 1202.3 367.719 1249.37 364.316 1292.52 378.646 C 1330.42 391.214 1362.43 417.243 1386.46 448.753 C 1386.54 451.989 1390.7 456.142 1392.45 459.169 L 1392.6 461.042 C 1393.08 466.414 1394.2 462.272 1390.99 466.524 C 1388 464.06 1369.04 448.436 1366.81 448.712 z" fill="rgb(236,96,32)" transform="translate(0,0)"></path>
<path d="M 1410.35 1416.02 C 1419.74 1425.17 1414.44 1436.38 1407.94 1445.35 C 1379.97 1483.9 1346.81 1519.15 1319.12 1557.89 C 1314.82 1563.92 1305.85 1569.23 1305.98 1576.53 C 1306.98 1578.04 1307.85 1579.51 1310.14 1579.39 C 1334.68 1578.14 1359.24 1580.13 1383.85 1579.18 C 1390.3 1578.93 1406.19 1577.88 1411.1 1581.45 C 1413.85 1586.64 1413.38 1594.57 1409.64 1599.18 C 1405.06 1600.18 1386.55 1599.9 1380.74 1599.92 C 1357.24 1600.05 1333.74 1599.94 1310.24 1599.6 C 1302.7 1599.53 1285.25 1601.47 1279.32 1599.3 C 1272.37 1593.06 1276.49 1577.92 1280.56 1570.85 C 1284.78 1563.54 1294.42 1555.79 1299.59 1548.59 C 1309.27 1532.69 1324.32 1519.84 1334.77 1505.26 C 1349.58 1484.59 1367.35 1466.7 1381.26 1445.6 C 1382.68 1443.46 1382.62 1441.68 1381.87 1439.51 C 1371.61 1434.73 1300.3 1436.13 1285.71 1437.62 C 1277.12 1429.47 1278.07 1423.08 1286.98 1416.16 C 1293.74 1415.88 1308.3 1417.49 1317.29 1417.53 C 1348.32 1417.87 1379.35 1417.36 1410.35 1416.02 z" fill="rgb(32,20,101)" transform="translate(0,0)"></path>
<path d="M 735.642 969.428 C 733.055 985.317 733.648 1031.26 733.571 1048.96 L 733.624 1202.11 C 733.582 1210.38 734.714 1257.26 731.74 1260.1 C 721.553 1260.89 697.061 1248.52 688.248 1242.48 C 660.082 1223.18 633.306 1188.21 627.873 1153.92 C 624.246 1131.02 624.568 1101.08 624.549 1077.62 L 624.586 978.582 L 624.505 883.719 C 624.46 833.879 620.886 794.96 650.914 752.835 C 667.447 729.642 697.5 707.864 725.723 703.67 C 764.794 697.865 807.377 730.505 828.442 760.596 C 831.629 765.265 842.148 783.934 844.596 785.701 L 847.268 783.416 L 849.301 783.682 C 849.328 791.396 852.173 791.758 854.79 798.045 L 852.662 798.732 C 851.09 796.692 849.684 794.544 847.63 793.045 L 846.281 793.694 C 847.31 799.236 848.521 804.568 849.719 810.037 C 850.452 813.385 852.322 820.477 852.262 823.559 C 851.819 846.544 851.496 869.258 853.004 892.229 C 853.361 897.006 855.51 900.655 856.826 905.142 C 858.784 912.883 860.492 923.138 860.222 931.03 C 855.111 915.841 848.92 880.361 849.244 865.411 C 850.276 817.887 850.127 788.277 816.457 749.927 C 798.521 729.342 774.48 711.416 746.921 707.283 C 745.024 706.409 736.613 710.32 736.833 711.972 C 739.576 732.485 739.815 752.842 740.342 773.502 C 740.335 776.483 740.436 780.115 740.153 783.01 L 738.863 782.973 C 737.933 773.776 738.386 721.942 732.997 719.315 C 733.607 715.782 734.328 713.327 733.671 709.802 C 732.352 708.202 731.062 706.614 728.634 706.904 C 677.655 713 639.7 758.715 630.04 807.168 C 626.877 823.031 627.684 842.515 627.669 858.04 L 627.7 919.675 C 627.365 986.317 627.415 1052.96 627.851 1119.6 C 628.406 1163.85 638.824 1193.89 671.391 1225.42 C 681.242 1234.96 717.501 1260.15 730.634 1257.07 C 732.402 1245.23 731.412 1205.15 731.478 1190.36 C 731.734 1132.17 729.334 1073.01 730.766 1014.7 C 731.223 996.091 730.065 960.054 732.276 943.146 C 733.615 947.308 733.212 949.149 733.967 952.406 C 743.434 993.24 738.934 1033.8 740.514 1075.49 L 741.294 1062.5 C 743.913 1126.04 739.388 1173.42 791.462 1221.72 C 805.803 1235.02 829.219 1250.2 848.891 1252.69 L 850.609 1252.03 C 852.315 1245.3 851.628 1230.59 851.577 1223.06 L 851.383 1157.42 C 851.378 1151.56 851.044 1131.09 851.965 1125.89 C 853.295 1139.09 851.316 1233.23 853.104 1236.63 C 853.387 1241.64 854.931 1252.2 851.302 1255.81 C 842.267 1257.15 814.357 1242.66 805.647 1236.39 C 728.022 1180.5 740.052 1105.35 738.022 1021.14 C 737.661 1006.19 738.518 985.192 735.967 971.166 L 735.642 969.428 z" fill="rgb(254,253,253)" fill-opacity="0.27451" transform="translate(0,0)"></path>
<path d="M 860.222 931.03 C 860.492 923.138 858.784 912.883 856.826 905.142 C 855.51 900.655 853.361 897.006 853.004 892.229 C 851.496 869.258 851.819 846.544 852.262 823.559 C 852.322 820.477 850.452 813.385 849.719 810.037 C 848.521 804.568 847.31 799.236 846.281 793.694 L 847.63 793.045 C 849.684 794.544 851.09 796.692 852.662 798.732 L 854.79 798.045 C 859.717 832.689 857.292 865.85 863.014 900.161 C 864.056 906.412 864.267 913.284 865.78 919.488 C 878.494 954.034 893.237 985.477 923.555 1008.24 C 955.349 1032.12 1002.03 1043.28 1041.54 1038.54 C 1051.25 1037.25 1067.32 1032.04 1075.22 1031.86 C 1082.98 1026 1087.64 1025.54 1095.69 1021.29 C 1114.69 1011.25 1129.89 998.532 1141.58 980.384 C 1145.98 973.772 1151.42 968.946 1153.6 960.994 C 1154.1 960.666 1158.98 955.63 1159.71 954.889 C 1161.25 942.814 1166.76 939.512 1169.69 928.684 C 1170.1 927.16 1170.78 923.32 1171.13 921.583 C 1172.73 917.931 1173 918.037 1176.03 915.628 C 1182.53 925.882 1164.95 946.838 1165.49 962.166 C 1152.58 981.949 1138.59 1002.22 1119.44 1016.69 C 1110.49 1023.44 1104.7 1023.51 1095.31 1031.92 C 1085.68 1032.84 1084.54 1036.15 1075.99 1039.39 C 1060.95 1045.08 1015.5 1051.3 1000.64 1046.98 C 981.447 1040.12 960.852 1040.21 942.617 1029.64 C 937.58 1026.72 935.79 1024.04 929.61 1023.25 C 925.715 1017.77 910.251 1008.21 904.369 1002.06 C 900.509 998.76 897.887 994.573 894.939 990.486 C 891.886 986.252 885.654 981.317 883.034 977.092 C 876.873 967.156 871.336 955.903 866.477 945.283 C 863.894 939.636 863.813 936.552 860.222 931.03 z M 1066.24 1034.6 C 1063.95 1040.39 1072.7 1037.7 1076.68 1037.19 C 1079.4 1032.01 1069.9 1034.49 1066.24 1034.6 z M 1094.37 1029.91 C 1095.2 1024.79 1093.1 1026.21 1088.28 1026.13 C 1085.36 1031.3 1089.94 1029.74 1094.37 1029.91 z M 1149.31 982.168 C 1150.56 981.405 1150.97 979.77 1150.21 978.513 C 1149.45 977.255 1147.81 976.849 1146.55 977.605 C 1145.29 978.364 1144.88 980.005 1145.64 981.268 C 1146.4 982.531 1148.05 982.934 1149.31 982.168 z M 952.119 1029.66 C 951.894 1026.92 947.959 1026.41 945.769 1026.13 C 946.295 1030.05 948.634 1029.49 952.119 1029.66 z M 886.139 973.308 C 885.556 969.405 885.548 968.951 882.045 966.801 C 882.542 971.544 881.486 971.903 886.139 973.308 z M 937.55 1021.92 L 936.677 1020.88 C 935.453 1019.33 934.335 1018.3 932.419 1018.89 C 931.552 1022.23 934.975 1021.63 937.55 1021.92 z" fill="rgb(254,253,253)" fill-opacity="0.0862745" transform="translate(0,0)"></path>
<path d="M 1066.24 1034.6 C 1069.9 1034.49 1079.4 1032.01 1076.68 1037.19 C 1072.7 1037.7 1063.95 1040.39 1066.24 1034.6 z" fill="rgb(254,253,253)" fill-opacity="0.00784314" transform="translate(0,0)"></path>
<path d="M 945.769 1026.13 C 947.959 1026.41 951.894 1026.92 952.119 1029.66 C 948.634 1029.49 946.295 1030.05 945.769 1026.13 z" fill="rgb(254,253,253)" fill-opacity="0.0313725" transform="translate(0,0)"></path>
<path d="M 882.045 966.801 C 885.548 968.951 885.556 969.405 886.139 973.308 C 881.486 971.903 882.542 971.544 882.045 966.801 z" fill="rgb(254,253,253)" fill-opacity="0.0156863" transform="translate(0,0)"></path>
<path d="M 932.419 1018.89 C 934.335 1018.3 935.453 1019.33 936.677 1020.88 L 937.55 1021.92 C 934.975 1021.63 931.552 1022.23 932.419 1018.89 z" fill="rgb(254,253,253)" fill-opacity="0.0352941" transform="translate(0,0)"></path>
<path d="M 1235.32 1416.1 C 1239.71 1415.51 1248.36 1414.44 1251.64 1417.64 C 1253.44 1434.31 1253.77 1592.16 1251.17 1600.02 C 1247.37 1600.2 1235.56 1601.05 1234.07 1599.22 C 1230.03 1594.27 1231.67 1562.18 1231.68 1556.38 L 1231.7 1474.31 C 1231.68 1457.88 1231.62 1439.37 1231.72 1422.84 C 1231.74 1420.93 1234.11 1417.8 1235.32 1416.1 z" fill="rgb(32,20,101)" transform="translate(0,0)"></path>
<path d="M 768.866 1012.24 C 771.379 1012.49 772.798 1013.13 773.681 1015.57 C 774.127 1016.81 780.427 1025.28 781.296 1022.78 C 781.463 1022.3 782.071 1017.63 782.551 1016.07 C 803.512 1064.96 872.215 1115.19 915.905 1132.11 C 1009.45 1168.35 1107.38 1150.57 1182.63 1086.12 C 1184.01 1084.93 1184.68 1084.66 1186.16 1083.13 C 1185.27 1088.16 1184.62 1088.22 1179.84 1089.49 C 1179.39 1089.7 1178.94 1089.9 1178.49 1090.11 C 1160.14 1109.09 1136.35 1121.41 1113.02 1133.46 C 1111.81 1134.08 1108.76 1133.32 1108.47 1133.45 C 1030.97 1168.59 935.352 1155.6 865.768 1108.14 C 865.504 1107.96 864.52 1106.64 864.267 1106.33 C 861.076 1104.42 854.475 1099.78 851.407 1100.23 C 851.057 1110.3 856.795 1111.54 852.109 1124.68 C 851.798 1119.35 851.901 1112.54 851.846 1107.08 C 845.295 1099.3 839 1096.62 830.966 1088.78 C 807.047 1065.44 785.618 1041.37 768.866 1012.24 z M 845.963 1095.26 C 843.558 1090.97 843.475 1091.23 838.652 1089.84 L 838.935 1091.06 C 839.587 1094.19 843.359 1094.71 845.963 1095.26 z M 789.928 1038.09 L 789.789 1036.45 C 789.601 1033.23 788.675 1032.46 786.049 1030.8 L 786.233 1032.43 C 786.55 1035.99 786.715 1036.61 789.928 1038.09 z" fill="rgb(254,253,253)" fill-opacity="0.164706" transform="translate(0,0)"></path>
<path d="M 838.652 1089.84 C 843.475 1091.23 843.558 1090.97 845.963 1095.26 C 843.359 1094.71 839.587 1094.19 838.935 1091.06 L 838.652 1089.84 z" fill="rgb(254,253,253)" fill-opacity="0.0666667" transform="translate(0,0)"></path>
<path d="M 786.049 1030.8 C 788.675 1032.46 789.601 1033.23 789.789 1036.45 L 789.928 1038.09 C 786.715 1036.61 786.55 1035.99 786.233 1032.43 L 786.049 1030.8 z" fill="rgb(254,253,253)" fill-opacity="0.0470588" transform="translate(0,0)"></path>
<path d="M 732.997 719.315 C 738.386 721.942 737.933 773.776 738.863 782.973 C 740.604 793.732 741.825 817.78 740.854 828.343 C 736.36 832.4 738.887 878.925 738.816 887.337 C 738.748 895.454 746.579 930.203 739.327 934.042 C 736.352 932.121 734.079 926.65 733.942 923.298 C 732.045 876.801 732.505 830.29 732.524 783.748 C 732.527 776.377 732.663 768.991 732.056 761.671 L 731.948 760.481 C 732.061 749.534 731.066 728.986 732.997 719.315 z" fill="rgb(254,253,253)" fill-opacity="0.113725" transform="translate(0,0)"></path>
<path d="M 732.164 932.439 C 731.502 925.844 731.693 918.917 731.435 912.265 C 729.837 871.124 731.413 829.995 731.3 788.839 C 731.275 779.704 731.028 769.492 731.948 760.481 L 732.056 761.671 C 732.663 768.991 732.527 776.377 732.524 783.748 C 732.505 830.29 732.045 876.801 733.942 923.298 C 734.079 926.65 736.352 932.121 739.327 934.042 C 746.579 930.203 738.748 895.454 738.816 887.337 C 738.887 878.925 736.36 832.4 740.854 828.343 C 742.526 841.007 740.842 859.322 740.726 872.448 C 740.713 905.298 747.066 937.84 759.433 968.274 C 756.69 970.033 757.576 968.519 754.977 966.234 L 755.561 966.553 L 755.284 966.302 L 754.695 966.491 C 754.033 967.794 754.286 973.135 754.896 974.505 C 757.921 981.304 757.535 981.956 757.473 989.516 C 753.91 985.855 751.659 970.687 751.05 965.271 C 744.322 958.265 744.41 955.264 741.449 945.653 C 741.089 941.035 735.478 933.675 732.164 932.439 z" fill="rgb(254,253,253)" fill-opacity="0.243137" transform="translate(0,0)"></path>
<path d="M 1177.05 712.83 C 1179.33 712.619 1183.43 711.528 1185.57 710.811 L 1185.29 712.026 C 1181.8 727.778 1185.52 745.935 1185.14 762.137 C 1184.14 804.701 1184.37 847.326 1184.72 889.895 C 1184.74 891.693 1181.82 903.864 1180.71 904.706 C 1179.96 892.187 1181.37 878.85 1181.17 866.15 C 1180.36 816.664 1177.16 766.857 1181.33 717.476 C 1181.38 716.922 1177.61 713.345 1177.05 712.83 z" fill="rgb(254,253,253)" fill-opacity="0.0470588" transform="translate(0,0)"></path>
<path d="M 1237.87 1033.01 C 1244.35 1032.51 1241.61 1028.75 1245.15 1029.3 C 1248.27 1031.9 1238.67 1037.8 1238.2 1046.14 C 1236.71 1048.6 1232.51 1048.75 1232.31 1050.94 C 1231.72 1057.47 1225.66 1055.15 1224.12 1060.97 C 1223.12 1064.72 1216.77 1064.39 1216.1 1068.96 C 1215.73 1070.6 1212.93 1072.47 1211.38 1072.55 C 1207.84 1073.45 1208.55 1078.8 1204.97 1079.74 C 1204.45 1079.88 1203.94 1080.03 1203.43 1080.17 C 1199.35 1081.61 1199.83 1087.38 1194.52 1087.91 C 1192.82 1088.08 1191.5 1090.89 1190.95 1091.95 C 1187.64 1096.42 1187.73 1099.13 1185.92 1104.3 C 1184.51 1088.41 1189.56 1093.01 1179.84 1089.49 C 1184.62 1088.22 1185.27 1088.16 1186.16 1083.13 C 1187.71 1081.75 1189.28 1080.41 1190.88 1079.1 C 1195.07 1076.77 1202.87 1068.15 1207.02 1064.99 C 1217.31 1057.14 1227.9 1040.18 1237.87 1033.01 z" fill="rgb(254,253,253)" fill-opacity="0.0117647" transform="translate(0,0)"></path>
<path d="M 185.175 1596.93 C 185.724 1594.27 184.403 1572.19 184.346 1566.72 C 184.094 1542.34 184.251 1518.8 185.212 1494.41 C 185.702 1482 183.658 1467.94 184.43 1454.83 L 187.388 1453.74 C 197.862 1467.7 205.625 1512.7 215.147 1531.38 C 214.167 1530.79 213.187 1530.19 212.207 1529.6 C 207.035 1518.52 202.35 1504.86 199.142 1493.07 C 196.043 1481.68 199.398 1486.13 191.962 1475.37 L 190.728 1475.59 C 187.679 1487.14 190.048 1513.04 186.763 1527.19 C 184.567 1536.65 187.832 1557.55 186.583 1568.05 C 186.405 1574.87 188.892 1592.88 185.175 1596.93 z" fill="rgb(254,253,253)" fill-opacity="0.0666667" transform="translate(0,0)"></path>
<path d="M 1294.3 908.644 C 1294 900.665 1297.47 895.802 1297.8 889.676 C 1300.79 834.465 1297.13 772.749 1300.01 718.082 C 1303.33 726.222 1301.37 888.956 1301.75 910.185 C 1301.43 905.569 1301.48 901.267 1299.85 896.991 L 1298.6 897.514 C 1296.55 902.002 1295.61 903.957 1294.3 908.644 z" fill="rgb(254,253,253)" fill-opacity="0.0980392" transform="translate(0,0)"></path>
<path d="M 757.473 989.516 C 757.535 981.956 757.921 981.304 754.896 974.505 C 754.286 973.135 754.033 967.794 754.695 966.491 L 755.284 966.302 L 755.561 966.553 L 754.977 966.234 C 757.576 968.519 756.69 970.033 759.433 968.274 C 761.93 979.54 774.994 1007.29 782.551 1016.07 C 782.071 1017.63 781.463 1022.3 781.296 1022.78 C 780.427 1025.28 774.127 1016.81 773.681 1015.57 C 772.798 1013.13 771.379 1012.49 768.866 1012.24 C 768.364 1010.35 758.622 991.234 757.473 989.516 z" fill="rgb(254,253,253)" fill-opacity="0.0588235" transform="translate(0,0)"></path>
<path d="M 716.18 1598 C 716.813 1588.52 716.111 1570.44 716.087 1560.12 L 715.964 1485.9 C 715.891 1477.92 714.093 1458.51 716.033 1452.49 L 717.257 1452.34 C 721.253 1456.34 725.593 1465.86 727.81 1471.16 C 720.424 1469.57 722.78 1467.57 719.544 1468.45 C 717.642 1475.23 718.25 1491.16 718.255 1498.79 L 718.505 1562.78 C 718.565 1571.31 719.978 1591.66 716.18 1598 z" fill="rgb(254,253,253)" fill-opacity="0.0666667" transform="translate(0,0)"></path>
<path d="M 732.164 932.439 C 735.478 933.675 741.089 941.035 741.449 945.653 C 739.828 958.453 741.341 970.396 741.097 982.996 C 740.617 1007.82 742.644 1038.16 741.294 1062.5 L 740.514 1075.49 C 738.934 1033.8 743.434 993.24 733.967 952.406 C 733.212 949.149 733.615 947.308 732.276 943.146 C 732.755 940.447 732.314 935.405 732.164 932.439 z" fill="rgb(254,253,253)" fill-opacity="0.454902" transform="translate(0,0)"></path>
<path d="M 852.109 1124.68 C 856.795 1111.54 851.057 1110.3 851.407 1100.23 C 854.475 1099.78 861.076 1104.42 864.267 1106.33 C 860.977 1105.74 859.364 1105.1 856.274 1106.32 C 853.493 1118.54 854.465 1135.63 854.111 1148.36 C 853.334 1176.26 855.786 1209.26 853.104 1236.63 C 851.316 1233.23 853.295 1139.09 851.965 1125.89 L 852.109 1124.68 z" fill="rgb(254,253,253)" fill-opacity="0.0980392" transform="translate(0,0)"></path>
<path d="M 1366.81 448.712 C 1369.04 448.436 1388 464.06 1390.99 466.524 C 1394.59 473.436 1403.97 472.123 1392.45 459.169 C 1390.7 456.142 1386.54 451.989 1386.46 448.753 C 1388.81 449.733 1403.76 470.801 1404.2 473.049 C 1407.13 487.917 1386.72 465.529 1384.01 463.433 C 1379.01 459.556 1370.02 453.662 1366.81 448.712 z" fill="rgb(231,111,64)" fill-opacity="0.733333" transform="translate(0,0)"></path>
<path d="M 850.955 1436.1 C 851.052 1461.38 851.264 1492.23 849.769 1517.17 C 847.012 1499.15 851.193 1481.32 847.496 1463.28 C 847.09 1461.3 845.368 1462.39 844.432 1462.96 C 843.954 1459.12 847.013 1450.02 848.091 1446.03 L 850.955 1436.1 z" fill="rgb(137,133,171)" fill-opacity="0.956863" transform="translate(0,0)"></path>
<path d="M 1392.45 459.169 C 1403.97 472.123 1394.59 473.436 1390.99 466.524 C 1394.2 462.272 1393.08 466.414 1392.6 461.042 L 1392.45 459.169 z" fill="rgb(236,96,32)" fill-opacity="0.968627" transform="translate(0,0)"></path>
<metadata></metadata></svg>